# Blender v2.79 (sub 0) OBJ File: ''
# www.blender.org
mtllib tera.mtl
o Plane_Plane.001
v -10.000000 -0.426056 10.000000
v 10.000000 0.000000 10.000000
v -10.000000 0.164356 -10.000000
v 10.000000 0.000000 -10.000000
v -10.000000 0.160400 0.000000
v 0.000000 -0.004080 10.000000
v 10.000000 -0.219254 0.000000
v 0.000000 0.164356 -10.000000
v 0.000000 -0.054404 0.000000
v -10.000000 -0.426056 5.000000
v 5.000000 -0.062015 10.000000
v 10.000000 0.000000 -5.000000
v -5.000000 0.594673 -10.000000
v -10.000000 0.594673 -5.000000
v -5.000000 -0.426056 10.000000
v 10.000000 -0.219254 5.000000
v 5.000000 0.000000 -10.000000
v 0.000000 0.594673 -5.000000
v 0.000000 -0.223280 5.000000
v -5.000000 0.591652 0.000000
v 5.000000 -0.711559 0.000000
v 5.000000 -0.711559 5.000000
v -5.000000 -0.426056 5.000000
v -5.000000 1.440542 -5.000000
v 5.000000 -0.062015 -5.000000
v -10.000000 -0.526405 7.500000
v 7.500000 -0.005587 10.000000
v 10.000000 0.000000 -7.500000
v -7.500000 0.359397 -10.000000
v -10.000000 0.359397 -2.500000
v -2.500000 -0.161999 10.000000
v 10.000000 -0.362787 2.500000
v 2.500000 0.000000 -10.000000
v 0.000000 0.359397 -7.500000
v 0.000000 -0.362787 2.500000
v -7.500000 0.315570 0.000000
v 2.500000 -0.575988 0.000000
v -10.000000 -0.161999 2.500000
v 2.500000 -0.005587 10.000000
v 10.000000 -0.100267 -2.500000
v -2.500000 0.359397 -10.000000
v -10.000000 0.359397 -7.500000
v -7.500000 -0.526405 10.000000
v 10.000000 -0.100267 7.500000
v 7.500000 0.000000 -10.000000
v 0.000000 0.260905 -2.500000
v 0.000000 -0.145995 7.500000
v -2.500000 0.354106 0.000000
v 7.500000 -0.575988 0.000000
v 5.000000 -0.878819 2.500000
v 5.000000 -0.362787 7.500000
v 2.500000 -0.575988 5.000000
v 7.500000 -0.575988 5.000000
v -5.000000 -0.059952 2.500000
v -5.000000 -0.526405 7.500000
v -7.500000 -0.526405 5.000000
v -2.500000 -0.167599 5.000000
v -5.000000 1.166373 -7.500000
v -5.000000 1.166373 -2.500000
v -7.500000 1.166373 -5.000000
v -2.500000 1.166373 -5.000000
v 5.000000 0.000000 -7.500000
v 5.000000 -0.362787 -2.500000
v 2.500000 0.096106 -5.000000
v 7.500000 -0.005587 -5.000000
v 7.500000 -0.219254 -2.500000
v 2.500000 -0.210095 -2.500000
v 2.500000 0.009158 -7.500000
v -2.500000 0.944148 -2.500000
v -7.500000 0.944148 -2.500000
v -7.500000 0.944148 -7.500000
v -2.500000 -0.268216 7.500000
v -7.500000 -0.650177 7.500000
v -7.500000 -0.259032 2.500000
v 7.500000 -0.219254 7.500000
v 2.500000 -0.219254 7.500000
v 2.500000 -0.711559 2.500000
v 7.500000 -0.711559 2.500000
v -2.500000 -0.126914 2.500000
v -2.500000 0.944148 -7.500000
v 7.500000 0.000000 -7.500000
vt 0.875007 0.874535
vt 0.999973 0.874525
vt 1.000000 0.999399
vt 0.875034 0.999409
vt 0.374793 0.875434
vt 0.499977 0.874892
vt 0.500077 0.999588
vt 0.375038 0.999776
vt 0.375084 0.374965
vt 0.500138 0.374740
vt 0.500050 0.499894
vt 0.374932 0.500276
vt 0.875164 0.374392
vt 1.000000 0.374700
vt 0.999973 0.499704
vt 0.875141 0.499390
vt 0.625233 0.374413
vt 0.750261 0.374250
vt 0.750226 0.499276
vt 0.625210 0.499410
vt 0.624996 0.125113
vt 0.750015 0.124972
vt 0.750172 0.249529
vt 0.625156 0.249662
vt 0.874927 0.125093
vt 0.999848 0.125191
vt 0.999919 0.249956
vt 0.875087 0.249642
vt 0.125203 0.374864
vt 0.250094 0.375036
vt 0.249878 0.500502
vt 0.125015 0.500261
vt 0.125294 0.124761
vt 0.250214 0.124864
vt 0.250203 0.249829
vt 0.125275 0.249747
vt 0.375083 0.125088
vt 0.500003 0.125190
vt 0.500059 0.249993
vt 0.375073 0.250054
vt 0.124862 0.875454
vt 0.249745 0.875646
vt 0.249985 1.000000
vt 0.125107 0.999796
vt 0.124808 0.625707
vt 0.249691 0.625899
vt 0.249615 0.751022
vt 0.124752 0.750783
vt 0.374739 0.625686
vt 0.499959 0.625055
vt 0.499862 0.750232
vt 0.374683 0.750762
vt 0.625073 0.874563
vt 0.750042 0.874545
vt 0.750069 0.999419
vt 0.625103 0.999429
vt 0.625101 0.624616
vt 0.750123 0.624467
vt 0.750038 0.749615
vt 0.625013 0.749769
vt 0.875035 0.624588
vt 0.999956 0.624686
vt 0.999946 0.749651
vt 0.874982 0.749656
vt 0.000061 0.625185
vt 0.000000 0.750272
vt 0.000108 0.500130
vt 0.000115 0.874932
vt 0.000215 0.999629
vt 0.250149 0.000081
vt 0.375016 0.000311
vt 0.499923 0.000445
vt 0.000283 0.124884
vt 0.000272 0.249849
vt 0.000218 0.000101
vt 0.125221 0.000000
vt 0.000201 0.374963
vt 0.749876 0.000372
vt 0.874820 0.000413
vt 0.999783 0.000408
vt 0.624889 0.000433
vn -0.0031 1.0000 0.0036
vn -0.0005 1.0000 0.0005
vn 0.0000 1.0000 0.0000
vn 0.1414 0.9798 -0.1414
vn 0.1617 0.9830 -0.0866
vn 0.1274 0.9871 -0.0964
vn 0.1211 0.9746 -0.1881
vn 0.0519 0.9926 0.1098
vn 0.1242 0.9914 0.0419
vn 0.1750 0.9749 0.1374
vn 0.1219 0.9733 0.1943
vn -0.1000 0.9950 0.0000
vn -0.1397 0.9902 0.0000
vn -0.1168 0.9903 0.0749
vn -0.0874 0.9923 0.0874
vn 0.1078 0.9941 0.0082
vn 0.0004 0.9949 0.1005
vn 0.1203 0.9871 0.1055
vn 0.0486 0.9938 -0.0997
vn 0.0000 0.9926 -0.1211
vn 0.0000 0.9950 -0.1000
vn 0.0848 0.9927 -0.0852
vn -0.0536 0.9936 -0.0997
vn -0.0596 0.9951 -0.0785
vn -0.1168 0.9903 -0.0749
vn -0.0874 0.9923 -0.0874
vn -0.0308 0.9864 0.1613
vn -0.0327 0.9854 0.1671
vn -0.0099 0.9731 0.2300
vn -0.0865 0.9755 0.2023
vn -0.0740 0.9973 -0.0003
vn -0.0613 0.9954 0.0728
vn -0.0050 0.9968 0.0802
vn -0.0691 0.9975 -0.0115
vn 0.0075 0.9987 -0.0506
vn 0.0671 0.9970 -0.0390
vn -0.0240 0.9994 0.0265
vn -0.1414 0.9798 -0.1414
vn 0.0000 0.9868 -0.1618
vn 0.0000 0.9743 -0.2253
vn -0.1211 0.9746 -0.1881
vn -0.1415 0.9791 0.1459
vn -0.0018 0.9864 0.1644
vn -0.1618 0.9868 0.0000
vn 0.1602 0.9753 0.1519
vn 0.2084 0.9687 0.1350
vn 0.2071 0.9781 0.0199
vn 0.1663 0.9861 0.0046
vn 0.0762 0.9967 -0.0277
vn 0.0060 1.0000 0.0016
vn 0.0009 1.0000 -0.0009
vn 0.0521 0.9984 -0.0212
vn 0.1255 0.9835 0.1299
vn 0.0059 0.9920 0.1261
vn 0.0110 0.9982 0.0580
vn 0.1138 0.9925 0.0445
vn -0.0536 0.9936 0.0997
vn -0.0596 0.9951 0.0785
vn -0.0130 0.9994 0.0319
vn -0.0193 0.9988 0.0449
vn -0.1842 0.9748 0.1258
vn -0.2253 0.9743 0.0000
vn -0.0779 0.9825 0.1695
vn -0.1881 0.9746 -0.1211
vn -0.1523 0.9765 -0.1523
vn -0.0743 0.9963 -0.0429
vn -0.0798 0.9958 -0.0453
vn -0.0204 0.9980 -0.0602
vn 0.0448 0.9990 0.0000
vn 0.0420 0.9963 0.0753
vn 0.0447 0.9980 -0.0447
vn 0.0000 0.9990 -0.0448
vn 0.0138 0.9898 0.1413
vn 0.0000 0.9947 -0.1023
vn -0.0323 0.9961 -0.0824
vn -0.0248 0.9977 -0.0626
vn 0.0273 0.9958 -0.0866
usemtl None
s 1
f 81/1/1 28/2/2 4/3/3 45/4/3
f 80/5/4 34/6/5 8/7/6 41/8/7
f 79/9/8 35/10/9 9/11/10 48/12/11
f 78/13/12 32/14/13 7/15/14 49/16/15
f 77/17/16 50/18/3 21/19/17 37/20/18
f 76/21/19 51/22/20 22/23/21 52/24/22
f 75/25/23 44/26/24 16/27/25 53/28/26
f 74/29/27 54/30/28 20/31/29 36/32/30
f 73/33/3 55/34/31 23/35/32 56/36/33
f 72/37/34 47/38/35 19/39/36 57/40/37
f 71/41/38 58/42/39 13/43/40 29/44/41
f 70/45/42 59/46/43 24/47/3 60/48/44
f 69/49/45 46/50/46 18/51/47 61/52/48
f 68/53/49 62/54/50 17/55/51 33/56/52
f 67/57/53 63/58/54 25/59/55 64/60/56
f 66/61/57 40/62/58 12/63/59 65/64/60
f 63/58/54 66/61/57 65/64/60 25/59/55
f 21/19/17 49/16/15 66/61/57 63/58/54
f 49/16/15 7/15/14 40/62/58 66/61/57
f 46/50/46 67/57/53 64/60/56 18/51/47
f 9/11/10 37/20/18 67/57/53 46/50/46
f 37/20/18 21/19/17 63/58/54 67/57/53
f 34/6/5 68/53/49 33/56/52 8/7/6
f 18/51/47 64/60/56 68/53/49 34/6/5
f 64/60/56 25/59/55 62/54/50 68/53/49
f 59/46/43 69/49/45 61/52/48 24/47/3
f 20/31/29 48/12/11 69/49/45 59/46/43
f 48/12/11 9/11/10 46/50/46 69/49/45
f 30/65/61 70/45/42 60/48/44 14/66/62
f 5/67/63 36/32/30 70/45/42 30/65/61
f 36/32/30 20/31/29 59/46/43 70/45/42
f 42/68/64 71/41/38 29/44/41 3/69/65
f 14/66/62 60/48/44 71/41/38 42/68/64
f 60/48/44 24/47/3 58/42/39 71/41/38
f 55/34/31 72/37/34 57/40/37 23/35/32
f 15/70/66 31/71/67 72/37/34 55/34/31
f 31/71/67 6/72/68 47/38/35 72/37/34
f 26/73/69 73/33/3 56/36/33 10/74/70
f 1/75/71 43/76/72 73/33/3 26/73/69
f 43/76/72 15/70/66 55/34/31 73/33/3
f 38/77/73 74/29/27 36/32/30 5/67/63
f 10/74/70 56/36/33 74/29/27 38/77/73
f 56/36/33 23/35/32 54/30/28 74/29/27
f 51/22/20 75/25/23 53/28/26 22/23/21
f 11/78/74 27/79/75 75/25/23 51/22/20
f 27/79/75 2/80/76 44/26/24 75/25/23
f 47/38/35 76/21/19 52/24/22 19/39/36
f 6/72/68 39/81/77 76/21/19 47/38/35
f 39/81/77 11/78/74 51/22/20 76/21/19
f 35/10/9 77/17/16 37/20/18 9/11/10
f 19/39/36 52/24/22 77/17/16 35/10/9
f 52/24/22 22/23/21 50/18/3 77/17/16
f 50/18/3 78/13/12 49/16/15 21/19/17
f 22/23/21 53/28/26 78/13/12 50/18/3
f 53/28/26 16/27/25 32/14/13 78/13/12
f 54/30/28 79/9/8 48/12/11 20/31/29
f 23/35/32 57/40/37 79/9/8 54/30/28
f 57/40/37 19/39/36 35/10/9 79/9/8
f 58/42/39 80/5/4 41/8/7 13/43/40
f 24/47/3 61/52/48 80/5/4 58/42/39
f 61/52/48 18/51/47 34/6/5 80/5/4
f 62/54/50 81/1/1 45/4/3 17/55/51
f 25/59/55 65/64/60 81/1/1 62/54/50
f 65/64/60 12/63/59 28/2/2 81/1/1
